<svg width="405" height="378" viewBox="0 0 405 378" fill="none" xmlns="http://www.w3.org/2000/svg">
<path fill-rule="evenodd" clip-rule="evenodd" d="M191.84 33.0426C188.213 34.3443 183.33 46.9816 151.017 35.1537C139.511 30.9416 129.472 37.7963 128.173 38.7934C120.897 44.3777 121.882 48.2621 117.389 55.6761C127.643 48.3304 136.107 46.7815 138.131 46.7417C142.892 46.6485 146.166 46.8746 153.425 49.3453C140.476 49.8869 137.538 50.5967 130.612 57.6842C124.208 64.2371 124.555 74.2767 124.586 75.6329C139.364 47.5717 160.413 72.4106 183.875 50.1731C188.402 45.884 191.21 34.7222 191.84 33.0426Z" fill="#963743"/>
<path fill-rule="evenodd" clip-rule="evenodd" d="M187.09 27.4639C181.383 19.3412 191.281 2.15712 204.966 0C202.573 3.90697 198.198 8.51811 201.831 11.5781C202.751 12.3517 219.583 15.8212 222.947 16.3145C224.155 28.3956 223.148 28.7472 227.57 36.8728C226.924 36.9594 221.508 36.8222 218.593 43.9289C217.523 46.5398 219.166 50.9007 220.972 53.9389C217.864 52.3087 208.285 43.991 196.217 44.5157C205.46 41.5113 206.747 41.9253 214.094 35.4802C219.6 30.652 213.219 24.4138 212.141 24.0658C202.943 21.0987 196.259 22.2186 191.524 22.9764C189.5 23.3001 189.178 23.809 187.09 27.4639ZM194.538 11.9303C194.789 11.7322 195.616 11.2967 196.307 11.1048C197.747 10.7051 196.909 10.9069 198.54 10.697C198.416 10.347 198.407 10.3814 198.176 10.087C197.775 9.57733 197.572 9.43903 197.148 9.28465C193.866 8.08487 194.62 10.7765 194.538 11.9303Z" fill="#963743"/>
<path fill-rule="evenodd" clip-rule="evenodd" d="M208.474 16.2474C217.512 14.6005 217.726 15.4551 226.159 11.7074C227.836 10.962 229.394 11.9425 228.287 13.6302C225.555 17.8005 220.207 17.1881 215.24 20.5664" fill="#963743"/>
<path fill-rule="evenodd" clip-rule="evenodd" d="M218.895 36.2118C230.856 39.2628 244.126 37.5245 252.565 49.2491C255.274 25.1832 226.577 25.0068 225.281 25.8936C225.036 26.0618 224.122 26.9943 224.045 27.1304C223.978 27.2509 224.023 27.2562 223.735 28.8308" fill="#963743"/>
<path fill-rule="evenodd" clip-rule="evenodd" d="M248.701 35.71C270.631 54.8965 233.726 71.4433 233.399 79.15C233.314 81.1305 232.848 84.5066 235.716 84.097C245.199 82.742 252.187 89.8148 255.737 85.7202C257.219 84.0084 257.736 84.556 258.983 82.6283C260.022 81.0244 261.453 82.1702 265.322 74.435C267.614 69.8487 266.513 69.5168 268.489 64.773C269.731 61.7943 269.872 50.4993 267.718 44.1352C262.147 27.6779 263.109 26.042 252.723 20.9466C237.245 13.355 236.091 29.6321 239.659 32.309" fill="#963743"/>
<path fill-rule="evenodd" clip-rule="evenodd" d="M220.043 19.7203C220.182 16.9222 219.863 11.536 229.701 8.37981C233.464 7.17326 241.922 9.06394 242.958 9.29566C239.718 14.1992 240.429 15.929 235.631 15.7743C227.147 15.5006 226.456 19.2975 225.584 22.183C224.771 24.8747 218.971 22.3194 219.758 20.7465" fill="#963743"/>
<path fill-rule="evenodd" clip-rule="evenodd" d="M222.18 18.4079C223.938 18.4079 220.811 23.9219 230.02 20.942C232.052 20.285 238.092 20.5983 239.032 13.366C242.159 13.3248 245.662 18.3856 244.045 21.5116C240.265 28.8209 239.275 28.5914 231.042 29.2248C226.679 29.5603 225.626 27.9525 221.799 24.89" fill="#963743"/>
<path fill-rule="evenodd" clip-rule="evenodd" d="M236.3 9.43174C236.3 8.88251 242.961 3.35017 249.235 2.27091C251.202 1.93223 256.72 -1.05296 277.018 0.817119C267.625 3.71143 264.848 3.4989 256.381 8.53932C244.403 15.6686 244.891 16.3318 243.822 16.8901C240.09 18.8366 239.357 11.7342 239.297 11.1528" fill="#963743"/>
<path fill-rule="evenodd" clip-rule="evenodd" d="M244.363 10.8621C250.925 11.6842 264.69 14.8833 278.756 24.7308C266.403 22.1085 268.444 21.714 253.118 21.2277C251.727 21.1834 241.764 21.5395 241.273 18.1011" fill="#963743"/>
<path fill-rule="evenodd" clip-rule="evenodd" d="M246.283 18.47C249.509 18.6311 261.247 16.0058 279.202 37.225C288.852 48.6295 286.636 52.1253 287.537 54.2629C282.894 47.9013 266.423 35.2127 260.14 32.6353C242.814 25.5267 243.534 24.0178 243.249 22.4997" fill="#963743"/>
<path fill-rule="evenodd" clip-rule="evenodd" d="M267.69 33.8788C271.215 35.0538 273.693 45.2399 274.156 46.0524C281.892 59.649 274.498 95.3432 273.501 87.1406C272.646 80.1155 273.707 75.5047 264.73 65.2878C261.986 62.1646 262.322 59.3623 262.204 50.3477C262.062 39.8354 261.662 39.9054 260.79 29.461" fill="#963743"/>
<path fill-rule="evenodd" clip-rule="evenodd" d="M198.842 67.3755C206.437 54.9549 226.874 59.7157 226.515 77.1953C226.151 95.1126 210.591 94.6608 206.389 94.194C209.228 93.3885 222.064 89.0494 219.087 74.5838C218.615 72.2977 210.089 61.6614 198.842 67.3755Z" fill="#963743"/>
<path fill-rule="evenodd" clip-rule="evenodd" d="M220.732 87.2925C223.89 87.6416 216.62 113.243 231.127 110.75C255.08 106.633 252.401 82.1869 237.799 89.488C225.022 95.8758 233.108 79.0789 223.041 76.9218" fill="#963743"/>
<path fill-rule="evenodd" clip-rule="evenodd" d="M248.151 64.7408C247.279 66.3832 239.317 69.7652 234.649 76.4067C231.527 80.8508 231.55 83.8532 231.612 84.9914C231.742 87.3707 232.041 87.3458 232.439 88.8467C234.672 88.024 237.169 87.5482 237.706 87.4686C243.24 86.6439 247.217 91.5412 247.366 88.6413C247.55 85.0741 247.211 85.1337 246.139 81.7754C246.026 81.4302 244.586 76.9271 243.085 78.4272" fill="#963743"/>
<path fill-rule="evenodd" clip-rule="evenodd" d="M277.738 121.926C264.221 116.136 264.789 94.9354 265.226 95.0807C265.889 95.3028 279.084 103.546 292.673 94.7378C301.764 88.8453 300.249 87.3924 307.135 78.8937C310.742 88.8202 315.955 104.541 316.387 106.762C310.164 106.395 275.325 101.621 290.613 129.504" fill="#963743"/>
<path fill-rule="evenodd" clip-rule="evenodd" d="M295.761 106.746C297.494 106.283 304.29 104.471 318.06 109.147C323.44 110.974 332.186 119.031 333.287 120.046C325.921 107.031 326.556 106.548 316.003 95.9957C315.213 95.2061 308.913 88.9052 304.338 88.3334" fill="#963743"/>
<path fill-rule="evenodd" clip-rule="evenodd" d="M353.811 88.7965C352.942 88.4643 340.93 83.0361 329.497 92.8692C324.673 97.0191 326.341 102.627 327.814 107.655C323.973 102.034 318.964 95.5033 312.204 93.8336C308.566 92.9355 304.248 93.8079 303.988 93.6354C301.039 91.6677 311.575 81.5671 327.21 80.7853C346.476 79.822 349.679 85.8212 354.886 87.9902" fill="#963743"/>
<path fill-rule="evenodd" clip-rule="evenodd" d="M223.444 16.4616C223.961 17.4929 236.543 18.2786 228.115 25.3023C226.391 26.738 219.753 24.5567 223.165 18.3523" fill="#963743"/>
<path fill-rule="evenodd" clip-rule="evenodd" d="M289.476 121.936C325.094 133.389 329.164 129.508 354.954 142.787C355.369 142.999 380.2 161.338 383.209 184.786C385.447 202.217 384.857 212.928 381.007 229.995C376.957 213.072 369.526 196.022 361.155 187.51C340.837 166.85 331.438 171.801 326.282 171.154C325.797 169.328 331.771 156.061 318.571 153.975C317.928 153.873 293.323 145.355 294.009 137.817" fill="#963743"/>
<path fill-rule="evenodd" clip-rule="evenodd" d="M353.185 174.318C371.541 191.247 375.958 210.303 375.439 226.108C374.112 266.417 364.02 273.614 353.024 288.491C358.623 285.448 365.391 280.989 378.859 260.225C382.193 255.085 388.901 240.539 390.631 207.995C391.052 200.072 385.249 176.94 375.961 167.025" fill="#963743"/>
<path fill-rule="evenodd" clip-rule="evenodd" d="M375.853 260.428C374.431 264.898 371.129 269.894 367.341 274.582C360.362 283.221 351.725 290.827 350.133 292.227C333.137 307.203 333.309 307.375 328.684 310.759C329.911 308.941 335.203 301.089 340.763 286.148C351.708 256.736 350.602 256.375 351.629 253.849C352.005 274.952 353.193 278.934 358.567 279.91C363.497 280.805 375.616 259.299 376.751 257.239" fill="#963743"/>
<path fill-rule="evenodd" clip-rule="evenodd" d="M267.357 68.4353C267.797 67.0462 264.015 77.9246 263.697 78.4385C261.512 81.9667 250.262 102.454 270.363 113.319C285.093 121.281 304.101 124.496 293.328 129.179C290.799 130.278 276.662 132.469 269.756 131.605C257.092 130.023 255.884 132.469 251.383 127.272C248.016 123.39 235.228 104.546 246.528 82.378C247.279 80.9047 247.97 79.351 248.089 79.0846" fill="#963743"/>
<path fill-rule="evenodd" clip-rule="evenodd" d="M223.258 83.7632C228.505 72.5709 214.159 63.9563 203.555 71.6141C204.704 71.7606 213.659 69.7979 217.294 75.7855C220.645 81.3027 217.608 88.0102 217.125 88.9351" fill="#963743"/>
<path fill-rule="evenodd" clip-rule="evenodd" d="M229.439 113.491C241.691 112.423 241.993 103.817 242.162 103.564C242.249 103.43 241.925 103.919 243.271 105.228C262.438 123.846 268.187 123.341 273.6 139.166C273.846 139.883 274.012 139.798 277.763 147.673C281.948 156.458 289.128 160.277 281.46 163.763C279.414 164.691 279.6 164.903 277.486 165.795C270.622 168.699 249.003 165.704 235.445 140.704C231.254 132.982 228.821 117.197 229.439 113.491Z" fill="#963743"/>
<path fill-rule="evenodd" clip-rule="evenodd" d="M243.426 147.997C245.34 158.567 259.737 159.14 282.691 153.402C304.095 148.051 301.934 135.833 300.545 130.27C297.285 117.237 267.938 122.43 267.261 122.742" fill="#963743"/>
<path fill-rule="evenodd" clip-rule="evenodd" d="M311.925 151.263C299.645 149.448 282.66 166.715 312.85 181.781C323.293 186.993 333.648 197.775 334.78 178.148C334.938 175.394 327.95 148.799 311.925 151.263Z" fill="#963743"/>
<path fill-rule="evenodd" clip-rule="evenodd" d="M315.026 191.52C313.683 191.36 290.478 171.174 290.037 203.815C298.88 191.574 301.471 194.837 316.692 196.821" fill="#963743"/>
<path fill-rule="evenodd" clip-rule="evenodd" d="M330.092 194.475C325.178 195.023 318.371 192.81 312.712 194.021C299.93 196.762 307.367 209.727 308.668 213.365C311.019 204.193 311.51 199.999 329.18 197.171" fill="#963743"/>
<path fill-rule="evenodd" clip-rule="evenodd" d="M317.422 196.874C330.199 200.707 338.096 193.97 342.733 187.798C338.977 188.385 339.174 188.992 335.494 189.694C333.547 190.067 332.878 189.793 328.859 191.072" fill="#963743"/>
<path fill-rule="evenodd" clip-rule="evenodd" d="M256.982 161.479C258.278 164.073 276.115 171.084 295.312 171.719C292.99 167.993 292.123 160.074 297.33 155.536C301.346 152.033 307.313 151.929 314.468 153.422C300.079 132.977 277.966 148.195 276.795 152.77C276.007 155.852 275.945 156.893 275.816 157.559C275.443 159.507 275.401 159.447 275.488 159.628" fill="#963743"/>
<path fill-rule="evenodd" clip-rule="evenodd" d="M316.291 181.995C320.795 189.44 307.341 188.546 303.483 188.038C302.411 187.897 311.775 200.027 317.126 199.381C318.653 199.194 322.486 199.601 329.612 196.166C333.154 194.456 337.509 191.8 342.795 187.651C341.209 187.439 342.536 188.438 335.395 188.492C325.926 188.565 326.138 183.226 316.291 181.995Z" fill="#963743"/>
<path fill-rule="evenodd" clip-rule="evenodd" d="M232.577 137.625C233.991 144.215 241.039 152.459 242.015 153.272C235.721 156.453 237.7 156.284 230.605 158.395C224.762 160.136 223.111 154.96 220.582 152.084C221.852 151.706 222.637 152.202 227.799 148.251C229.566 146.899 231.773 143.656 232.577 137.625Z" fill="#963743"/>
<path fill-rule="evenodd" clip-rule="evenodd" d="M225.654 155.801C220.371 141.509 210.619 148.886 209.536 161.152C218.477 148.567 225.092 161.544 231.426 162.143C237.466 162.713 232.083 157.76 231.18 156.859C229.295 154.974 225.609 153.921 225.084 153.769" fill="#963743"/>
<path fill-rule="evenodd" clip-rule="evenodd" d="M227.198 153.932C247.826 161.073 238.214 174.55 233.76 175.662C233.898 174.011 235.233 166.001 229.461 162.329C227.788 161.265 224.079 157.483 224.028 157.59" fill="#963743"/>
<path fill-rule="evenodd" clip-rule="evenodd" d="M239.309 160.302C239.263 160.331 240.539 162.51 240.708 163.071C241.358 165.242 241.329 165.812 241.143 168.6C245.035 169.726 245.664 170.237 248.004 177.869C250.045 169.582 246.937 166.839 245.594 164.982C243.381 161.917 239.884 160.413 239.309 160.302Z" fill="#963743"/>
<path fill-rule="evenodd" clip-rule="evenodd" d="M327.064 91.1884C347.274 78.9398 357.477 91.9144 368.205 96.4535C363.404 92.2378 345.279 74.5897 329.022 72.3321C312.983 70.1044 308.82 70.6023 306.737 87.2702" fill="#963743"/>
<path fill-rule="evenodd" clip-rule="evenodd" d="M331.071 81.3165C330.287 69.1384 342.462 68.1878 359.055 73.9313C378.93 80.8113 383.161 84.0762 394.95 89.5061C372.89 68.5288 351.9 55.5471 374.078 49.7272C378.227 48.6386 383.367 48.211 384.134 48.2099C391.515 48.1983 398.748 48.6327 405 51.2106C375.049 24.5872 314.448 49.7695 311.595 55.3721C307.917 62.5979 312.074 63.5967 304.787 81.8401C298.307 98.0646 294.31 97.9322 290.907 101.901" fill="#963743"/>
<path fill-rule="evenodd" clip-rule="evenodd" d="M386.254 84.3683C375.41 80.1974 368.659 76.5577 361.251 75.7296C355.595 75.0974 352.702 79.3561 358.411 85.5477C347.655 78.9282 346.902 75.7593 334.574 76.8196C329.31 77.2726 328.811 70.4742 335.136 69.1877C355.606 65.0242 367.401 72.8032 371.386 74.2383" fill="#963743"/>
<path fill-rule="evenodd" clip-rule="evenodd" d="M226.036 30.4176C220.716 29.5477 221.992 24.3823 222.254 24.2951C222.576 24.1884 224.577 23.5212 226.327 25.4291C228.088 27.3508 227.089 27.67 225.449 29.7064" fill="#963743"/>
<path fill-rule="evenodd" clip-rule="evenodd" d="M72.5205 58.1273C62.219 63.2716 60.4324 80.9713 66.7263 88.4759C72.4641 95.3173 88.3764 97.259 92.5055 82.6763C88.4667 85.1303 79.1276 85.4413 78.2047 74.6738C77.8519 76.6139 88.3905 79.8201 91.5572 76.4979C91.8056 76.2379 76.1303 72.4433 87.7979 63.5775C90.9307 61.198 103.453 66.6053 100.352 84.3169C96.2451 107.752 80.3497 106.368 76.119 107.37C78.6337 108.98 89.3163 108.295 90.194 116.872C90.2505 117.422 90.4622 117.151 89.8779 134.414C89.6775 140.38 80.107 139.706 77.0363 139.726C80.2989 140.513 89.3247 140.536 89.5082 147.132C90.2392 173.238 89.5675 174.844 89.717 183.224C95.6242 169.719 112.843 158.379 119.473 157.918C107.67 154.455 107.588 148.45 107.845 131.865C108.15 112.245 108.494 99.1689 108.014 75.3193C107.709 60.0583 93.5187 55.7336 90.3831 55.2773C80.1916 53.7944 75.5122 56.6337 72.5205 58.1273Z" fill="white"/>
<path d="M60.3377 89.2718H24.1428V90.0073H60.3377V89.2718Z" fill="white"/>
<path d="M44.3823 68.2578H43.6479V107.851H44.3823V68.2578Z" fill="white"/>
<path fill-rule="evenodd" clip-rule="evenodd" d="M20.0138 89.6094C23.9368 89.4313 36.0842 88.1426 39.296 83.0172C42.5191 77.8721 43.1937 71.2089 43.8146 63.6978C43.5493 75.9219 44.1533 77.0929 43.9698 88.8028C43.9642 89.0836 43.9896 89.3652 43.9698 89.6452C43.967 89.6715 43.9698 89.6452 43.9049 89.9692" fill="white"/>
<path d="M150.509 89.3565H125.428V173.503H150.509V89.3565Z" fill="white"/>
<path fill-rule="evenodd" clip-rule="evenodd" d="M150.096 113.098C150.048 111.415 149.65 96.1863 156.655 93.2485C157.482 92.9008 163.378 91.2514 170.899 91.8069C169.468 90.0604 167.298 88.0436 157.072 88.7918C145.571 89.6337 146.954 100.148 147.567 108.268" fill="white"/>
<path fill-rule="evenodd" clip-rule="evenodd" d="M119.439 172.953C125.07 172.126 125.341 169.072 125.761 163.91C125.905 164.605 127.912 170.441 126.481 172.88C125.493 174.57 124.099 174.291 120.876 174.367" fill="white"/>
<path fill-rule="evenodd" clip-rule="evenodd" d="M150.395 163.411C150.07 170.396 153.465 172.843 159.756 172.97C159.593 172.984 152.822 174.909 149.13 172.668C146.534 171.093 147.513 166.625 147.685 163.882" fill="white"/>
<path d="M167.517 87.1985H52.77V91.7837H167.517V87.1985Z" fill="white"/>
<path d="M79.0835 167.029H63.6642V191.351H79.0835V167.029Z" fill="white"/>
<path d="M117.934 193.514L103.646 195.925L114.616 260.947L128.903 258.537L117.934 193.514Z" fill="white"/>
<path d="M47.7989 158.664H45.1721V300.304H47.7989V158.664Z" fill="white"/>
<path d="M149.048 192.379H133.994V263.303H149.048V192.379Z" fill="white"/>
<path d="M159.636 300.464H141.315V376.933H159.636V300.464Z" fill="white"/>
<path d="M193.725 301.629H175.756V376.859H193.725V301.629Z" fill="white"/>
<path d="M174.231 193.328H159.646V264.09H174.231V193.328Z" fill="white"/>
<path d="M246.151 189.506L231.307 192.402L245.13 263.282L259.975 260.387L246.151 189.506Z" fill="white"/>
<path d="M221.63 307.619H204.302V363.229H221.63V307.619Z" fill="white"/>
<path d="M229.012 308.792H226.547V373.624H229.012V308.792Z" fill="white"/>
<path d="M281.715 302.4H263.604V376.92H281.715V302.4Z" fill="white"/>
<path d="M191.931 87.1936H144.911V92.2638H191.931V87.1936Z" fill="white"/>
<path fill-rule="evenodd" clip-rule="evenodd" d="M191.592 87.4283C191.88 94.6546 192.222 102.185 191.643 107.707C190.983 103.714 191.189 95.4607 182.245 92.5776C164.772 86.9437 162.215 92.1227 164.724 91.6728" fill="white"/>
<path d="M192.246 87.1052H190.734V108.225H192.246V87.1052Z" fill="white"/>
<path d="M157.537 91.8154H154.182V173.43H157.537V91.8154Z" fill="white"/>
<path d="M161.843 172.86H115.773V174.973H161.843V172.86Z" fill="white"/>
<path fill-rule="evenodd" clip-rule="evenodd" d="M78.9725 169.434C79.2717 154.732 78.9556 154.069 79.2632 145.511C76.8953 150.394 74.0588 158.37 56.024 165.011C60.2604 165.635 62.6989 164.224 63.4412 166.501C64.0818 168.471 65.1684 169.177 65.4225 171.296" fill="white"/>
<path fill-rule="evenodd" clip-rule="evenodd" d="M63.3394 164.483C49.3462 170.481 31.8985 170.656 29 168.844C27.7243 168.048 28.2069 167.735 28.7629 166.307C29.9314 167.133 32.6634 168.88 45.9566 167.085C54.1753 165.973 56.69 164.497 60.2518 163.549" fill="white"/>
<path fill-rule="evenodd" clip-rule="evenodd" d="M109.465 91.0654C124.263 92.791 124.816 95.9359 126.975 117.308C128.448 92.9648 128.702 89.5512 126.656 89.405C125.998 89.3582 115.149 89.3246 114.399 90.0747" fill="white"/>
<path fill-rule="evenodd" clip-rule="evenodd" d="M43.8626 63.8203C43.8626 64.0051 43.9303 65.8597 44.2097 68.3984C44.7403 73.2263 46.2503 81.4475 49.2927 84.4406C52.2534 87.3549 58.6544 87.3349 65.5522 87.651C56.1708 88.4937 48.7113 90.2639 43.998 89.6006C43.0441 89.4669 42.9481 89.2394 42.9481 77.7527" fill="white"/>
<path fill-rule="evenodd" clip-rule="evenodd" d="M19.5876 89.7806C23.6179 89.8436 27.1289 90.7318 29.9089 91.5954C36.7729 93.7277 38.4748 95.6139 38.9884 96.1501C44.1307 101.539 43.7356 109.015 43.919 110.767C44.046 111.978 44.0941 112.608 44.2295 113.84C44.5626 105.025 43.0074 103.516 43.9275 95.6647C44.1928 93.3732 43.9501 91.3984 44.0489 90.6124C44.2775 88.794 42.3752 88.8385 41.8616 88.7948" fill="white"/>
<path fill-rule="evenodd" clip-rule="evenodd" d="M44.3115 113.689C44.5824 108.668 45.5759 101.239 47.7717 96.9121C50.6307 91.2768 62.3745 91.3208 64.9372 91.43C65.1263 91.0829 55.234 87.8603 50.6843 88.3658C43.3632 89.1792 43.2474 90.2235 43.1769 90.8523" fill="white"/>
<path fill-rule="evenodd" clip-rule="evenodd" d="M21.8004 188.99C23.4317 184.099 45.5984 164.009 71.2761 183.266C71.9788 183.794 77.3441 180.757 77.5755 184.33C77.9961 190.835 86.7792 190.59 87.4791 190.844C80.6745 195.546 74.66 196.872 68.1602 198.306C64.5532 199.102 61.762 201.383 55.5669 203.166C56.6196 202.387 66.4668 194.742 58.6151 186.828C50.6052 178.75 37.964 182.992 28.2354 185.473C25.1054 186.272 22.7939 187.404 22.0488 188.897" fill="white"/>
<path fill-rule="evenodd" clip-rule="evenodd" d="M90.7219 246.856C83.4996 270.042 79.6555 272.554 62.8315 281.145C34.69 295.516 -14.9107 275.359 4.31592 244.426C6.63307 240.701 16.0484 235.256 21.6479 234.415C23.3752 234.156 32.0849 233.633 44.2888 240.799C17.2789 236.622 12.8563 267.013 32.3079 273.807C60.4579 283.637 75.8651 278.012 77.4089 248.496" fill="white"/>
<path fill-rule="evenodd" clip-rule="evenodd" d="M31.9184 180.218C17.7926 185.188 12.21 209.138 14.1744 211.495C24.4308 223.803 37.7325 224.012 48.6888 231.356C63.5287 241.299 79.4918 245.696 74.0814 266.24C76.8558 262.918 79.8306 260.121 82.4666 257.556C87.2589 252.89 91.2723 250.198 90.5498 245.276C90.214 243.001 88.5939 239.295 86.0566 236.411C73.7766 222.44 50.2298 213.953 27.6342 200.144C25.0178 198.543 23.0422 196.184 24.7836 191.338C27.1939 184.632 34.6702 183.331 35.04 182.405" fill="white"/>
<path fill-rule="evenodd" clip-rule="evenodd" d="M36.8039 240.359C59.0073 243.145 70.418 264.225 75.0297 269.093C78.1653 272.404 96.3384 304.725 116.326 303.049C103.465 292.081 123.814 299.71 133.331 287.918C139.266 280.56 135.041 262.822 117.689 269.313C135.775 267.366 130.503 281.153 123.015 283.93C107.828 289.558 94.3148 281.198 91.9186 278.805C77.7392 264.626 54.3137 239.332 32.5281 235.846" fill="white"/>
<path d="M56.876 259.677L46.6239 249.169L36.1578 259.38L46.4098 269.888L56.876 259.677Z" fill="white"/>
<path d="M117.218 190.596H90.0502V192.382H117.218V190.596Z" fill="white"/>
<path fill-rule="evenodd" clip-rule="evenodd" d="M117.252 190.714C117.735 193.381 117.887 194.107 118.189 196.074C116.103 196.175 116.515 193.254 116.239 191.132" fill="white"/>
<path fill-rule="evenodd" clip-rule="evenodd" d="M98.7797 191.883C98.266 198.557 76.407 276.863 69.8366 287.845C65.4845 295.115 54.8725 309.094 40.4701 311.341C13.3022 315.58 4.11271 293.075 5.62548 288.559C-3.68203 303.241 1.84494 311.781 2.54347 313.511C5.67627 321.27 10.8637 322.512 11.8882 323.124C7.31605 320.528 2.71 331.27 5.57186 336.378C16.2008 316.266 37.151 342.618 63.2351 307.774C76.1473 290.526 80.6461 275.396 85.4131 260.449C85.7292 259.455 94.9921 225.364 102.787 191.84" fill="white"/>
<path fill-rule="evenodd" clip-rule="evenodd" d="M104.348 198.504C103.753 197.313 103.874 196.395 102.928 191.64C110.015 192.704 110.004 191.022 117.162 191.301C116.735 193.257 116.69 193.788 117.026 194.679" fill="white"/>
<path fill-rule="evenodd" clip-rule="evenodd" d="M90.5949 230.201C93.2676 230.328 97.9555 230.201 114.19 230.614C101.551 232.809 101.128 246.596 101.128 249.876C100.01 237.988 95.1021 232.744 92.2488 231.034C90.6852 230.094 94.4897 232.973 90.3748 233.151" fill="white"/>
<path fill-rule="evenodd" clip-rule="evenodd" d="M148.659 195.204C148.78 194.358 149.071 190.545 148.919 182.109C147.99 185.716 146.181 190.203 137.674 190.598C130.26 190.943 126.399 190.677 126.396 190.745C126.379 191.067 126.393 191.358 126.385 192.261C126.382 192.498 126.774 192.34 131.129 192.379C137.44 192.439 140.429 193.226 140.056 192.853" fill="white"/>
<path fill-rule="evenodd" clip-rule="evenodd" d="M114.077 252.958C115.886 261.397 112.945 261.687 111.116 263.276C126.749 263.228 127.085 263.234 137.598 263.192C134.892 262.946 128.262 261.49 126.422 248.911" fill="white"/>
<path fill-rule="evenodd" clip-rule="evenodd" d="M121.062 254.121C122.626 256.071 130.319 259.164 132.205 258.45C136.244 256.918 134.025 247.031 134.674 241.034C134.705 241.231 139.704 263.872 130.943 262.619" fill="white"/>
<path fill-rule="evenodd" clip-rule="evenodd" d="M141.4 305.177C140.988 298.347 141.891 288.249 139.921 272.294C139.139 265.986 131.093 263.214 121.596 261.481C133.492 258.893 139.853 260.451 149.026 259.52C148.845 263.118 149.684 288.951 150.225 290.969C152.274 298.646 159.144 299.498 167.546 299.829C163.245 300.495 159.062 300.365 157.829 315.157" fill="white"/>
<path fill-rule="evenodd" clip-rule="evenodd" d="M159.449 360.207C159.336 361.737 159.234 365.389 159.898 371.666C160.07 373.291 161.439 376.732 168.198 376.955C161.247 376.977 160.899 376.989 154.357 376.901" fill="white"/>
<path fill-rule="evenodd" clip-rule="evenodd" d="M176.696 360.769C176.617 372.938 176.355 375.8 166.688 376.368C152.06 377.228 172.321 377.073 178.624 376.746" fill="white"/>
<path fill-rule="evenodd" clip-rule="evenodd" d="M189.258 376.735C193.887 376.831 204.355 377.011 205.072 377.011C201.569 377.135 205.583 377.011 205.072 377.011C194.547 375.047 193.98 375.569 192.6 362.823" fill="white"/>
<path fill-rule="evenodd" clip-rule="evenodd" d="M204.691 311.798C204.877 314.22 204.798 303.563 201.646 302.287C197.102 300.45 193.757 299.894 192.323 299.992C213.101 297.345 212.61 305.984 226.324 307.491C231.147 308.022 231.08 307.771 236.041 307.915C236.177 307.918 236.295 307.898 236.295 307.985C236.29 308.454 236.352 308.891 236.295 309.374C227.035 309.416 227.171 309.43 218.083 309.377" fill="white"/>
<path fill-rule="evenodd" clip-rule="evenodd" d="M204.948 341.746C204.516 347.58 205.631 357.656 195.631 362.005C215.289 366.374 218.145 382.628 238.931 376.277C248.248 373.43 253.1 361.963 258.699 353.814C246.549 348.895 245.479 331.106 246.888 317.011C248.44 301.499 255.49 303.232 260.198 301.996C247.02 294.706 246.724 295.685 241.302 294.015C242.092 301.785 241.771 354.435 240.151 363.955C239.307 368.917 228.827 381.806 221.679 363.264C219.96 358.801 221.221 350.789 221.185 353.614" fill="white"/>
<path fill-rule="evenodd" clip-rule="evenodd" d="M154.732 335.314C167.972 335.526 167.876 335.111 181.175 335.746C171.257 336.053 168.243 343.448 167.303 352.113C166.662 345.996 164.12 340.654 162.531 338.929C161.314 337.606 158.675 335.972 154.732 335.314Z" fill="white"/>
<path fill-rule="evenodd" clip-rule="evenodd" d="M252.829 376.881C259.811 376.853 259.314 376.991 267.734 376.901C266.613 369.224 265.027 367.661 263.743 359.956C263.633 361.395 264.826 370.799 258.592 374.344C255.614 376.038 256.326 376.139 252.829 376.881Z" fill="white"/>
<path fill-rule="evenodd" clip-rule="evenodd" d="M275.856 376.842C277.465 376.836 288.876 377.087 293.273 377.144C280.914 374.245 282.364 367.624 281.075 356.592C280.846 362.758 280.688 365.341 281.314 371.2" fill="white"/>
<path d="M198.595 334.961H132.495V336.764H198.595V334.961Z" fill="white"/>
<path fill-rule="evenodd" clip-rule="evenodd" d="M141.552 361.395C141.326 362.386 141.922 372.377 140.155 373.808C139.136 374.632 138.625 375.693 132.888 376.977C135.473 376.974 139.478 376.881 144.756 376.963" fill="white"/>
<path fill-rule="evenodd" clip-rule="evenodd" d="M157.623 189.65C164.456 188.857 203.72 192.628 209.534 183.876C220.818 199.909 210.121 212.567 203.503 217.447C185.745 230.54 173.1 230.058 171.17 230.625C184.568 223.846 190.732 218.201 194.35 203.722C197.909 189.492 176.524 193.48 174.602 193.494C166.028 193.565 165.658 193.195 153.697 193.514C153.711 191.677 153.793 190.226 153.807 189.994C153.841 189.52 153.313 189.729 157.623 189.65Z" fill="white"/>
<path fill-rule="evenodd" clip-rule="evenodd" d="M174.825 230.029C188.513 251.183 184.542 251.728 201.504 270.442C211.964 281.986 228.571 293.653 244.542 299.069C274.739 309.312 311.135 300.153 329.675 276.832C331.643 274.357 336.35 268.927 337.668 253.15C338.219 246.565 332.43 238.268 339.339 226.137C334.403 227.639 334.49 227.371 330.996 231.212C323.43 219.008 307.373 215.477 301.356 215.565C288.712 215.748 274.38 222.959 272.06 225.754C283.386 223.301 305.923 220.919 309.498 247.852C312.276 268.783 301.861 282.285 281.032 291.173C277.967 292.479 251.084 298.392 222.669 279.655C220.928 278.509 194.282 250.299 198.405 232.081C199.232 228.423 199.898 226.016 203.483 223.374C195.132 225.054 190.734 226.216 183.108 226.967" fill="white"/>
<path fill-rule="evenodd" clip-rule="evenodd" d="M225.3 188.521C222.392 206.398 220.106 218.955 209.229 259.568C207.253 266.951 197.333 278.969 187.198 281.991C178.372 284.622 162.082 279.203 166.857 269.175C163.143 271.927 158.054 286.25 170.312 292.553C203.742 309.744 215.701 250.624 218.475 238.017C228.207 193.779 228.127 191.973 229.081 188.154" fill="white"/>
<path fill-rule="evenodd" clip-rule="evenodd" d="M231.734 194.059C231.13 191.781 230.978 188.981 228.63 188.897C227.32 188.851 227.397 188.987 220.008 188.987C219.807 188.987 219.872 188.719 219.965 186.371C226.406 186.179 245.502 186.207 245.57 186.562C245.68 187.13 245.674 187.231 245.75 187.756C246.066 189.966 246.213 190.429 246.219 190.666" fill="white"/>
<path fill-rule="evenodd" clip-rule="evenodd" d="M217.95 230.117C221.368 230.018 220.699 229.936 242.976 230.156C238.209 230.56 236.245 233.224 234.455 235.335C231.39 238.951 230.439 245.25 229.965 247.739C229.451 243.354 228.875 240.441 225.683 236.577C222.006 232.126 221.029 231.144 217.95 230.117Z" fill="white"/>
<path fill-rule="evenodd" clip-rule="evenodd" d="M176.05 312.001C177.148 298.429 168.398 299.874 165.74 299.874C183.503 299.843 184.844 299.761 202.515 299.668C192.202 300.41 193.881 310.077 193.314 312.91" fill="white"/>
<path fill-rule="evenodd" clip-rule="evenodd" d="M138.276 192.76C138.877 194.561 139.478 196.362 140.076 198.162V240.653" fill="white"/>
<path fill-rule="evenodd" clip-rule="evenodd" d="M244.458 255.721C244.221 256.556 244.788 259.785 243.972 261.882C243.109 264.098 239.648 264.942 238.827 265.272C240.947 265.309 250.836 265.32 265.219 264.798C261.747 263.765 261.158 262.847 259.456 258.47C258.451 255.882 258.536 252.899 257.985 251.902" fill="white"/>
<path fill-rule="evenodd" clip-rule="evenodd" d="M166.598 246.551C166.392 247.065 164.399 249.568 159.587 259.339C158.249 262.06 157.117 263.048 152.218 264.386C154.075 264.4 155.481 264.154 167.952 264.157C170.772 264.157 175.209 264.18 181.615 264.487C178.426 263.562 175.494 262.218 173.795 258.538C172.609 255.972 167.284 248.956 166.459 244.832" fill="white"/>
<path fill-rule="evenodd" clip-rule="evenodd" d="M72.5205 58.1273C62.219 63.2716 60.4324 80.9713 66.7263 88.4759C72.4641 95.3173 88.3764 97.259 92.5055 82.6763C88.4667 85.1303 79.1276 85.4413 78.2047 74.6738C77.8519 76.6139 88.3905 79.8201 91.5572 76.4979C91.8056 76.2379 76.1303 72.4433 87.7979 63.5775C90.9307 61.198 103.453 66.6053 100.352 84.3169C96.2451 107.752 80.3497 106.368 76.119 107.37C78.6337 108.98 89.3163 108.295 90.194 116.872C90.2505 117.422 90.4622 117.151 89.8779 134.414C89.6775 140.38 80.107 139.706 77.0363 139.726C80.2989 140.513 89.3247 140.536 89.5082 147.132C90.2392 173.238 89.5675 174.844 89.717 183.224C95.6242 169.719 112.843 158.379 119.473 157.918C107.67 154.455 107.588 148.45 107.845 131.865C108.15 112.245 108.494 99.1689 108.014 75.3193C107.709 60.0583 93.5187 55.7336 90.3831 55.2773C80.1916 53.7944 75.5122 56.6337 72.5205 58.1273Z" fill="white"/>
<path d="M60.3377 89.2718H24.1428V90.0073H60.3377V89.2718Z" fill="white"/>
<path d="M44.3823 68.2578H43.6479V107.851H44.3823V68.2578Z" fill="white"/>
<path fill-rule="evenodd" clip-rule="evenodd" d="M20.0138 89.6094C23.9368 89.4313 36.0842 88.1426 39.296 83.0172C42.5191 77.8721 43.1937 71.2089 43.8146 63.6978C43.5493 75.9219 44.1533 77.0929 43.9698 88.8028C43.9642 89.0836 43.9896 89.3652 43.9698 89.6452C43.967 89.6715 43.9698 89.6452 43.9049 89.9692" fill="white"/>
<path d="M150.509 89.3565H125.428V173.503H150.509V89.3565Z" fill="white"/>
<path fill-rule="evenodd" clip-rule="evenodd" d="M150.096 113.098C150.048 111.415 149.65 96.1863 156.655 93.2485C157.482 92.9008 163.378 91.2514 170.899 91.8069C169.468 90.0604 167.298 88.0436 157.072 88.7918C145.571 89.6337 146.954 100.148 147.567 108.268" fill="white"/>
<path fill-rule="evenodd" clip-rule="evenodd" d="M119.439 172.953C125.07 172.126 125.341 169.072 125.761 163.91C125.905 164.605 127.912 170.441 126.481 172.88C125.493 174.57 124.099 174.291 120.876 174.367" fill="white"/>
<path fill-rule="evenodd" clip-rule="evenodd" d="M150.395 163.411C150.07 170.396 153.465 172.843 159.756 172.97C159.593 172.984 152.822 174.909 149.13 172.668C146.534 171.093 147.513 166.625 147.685 163.882" fill="white"/>
<path d="M167.517 87.1985H52.77V91.7837H167.517V87.1985Z" fill="white"/>
<path d="M79.0835 167.029H63.6642V191.351H79.0835V167.029Z" fill="white"/>
<path d="M117.934 193.514L103.646 195.925L114.616 260.947L128.903 258.537L117.934 193.514Z" fill="white"/>
<path d="M47.7989 158.664H45.1721V300.304H47.7989V158.664Z" fill="white"/>
<path d="M149.048 192.379H133.994V263.303H149.048V192.379Z" fill="white"/>
<path d="M159.636 300.464H141.315V376.933H159.636V300.464Z" fill="white"/>
<path d="M193.725 301.629H175.756V376.859H193.725V301.629Z" fill="white"/>
<path d="M174.231 193.328H159.646V264.09H174.231V193.328Z" fill="white"/>
<path d="M246.151 189.506L231.307 192.402L245.13 263.282L259.975 260.387L246.151 189.506Z" fill="white"/>
<path d="M221.63 307.619H204.302V363.229H221.63V307.619Z" fill="white"/>
<path d="M229.012 308.792H226.547V373.624H229.012V308.792Z" fill="white"/>
<path d="M281.715 302.4H263.604V376.92H281.715V302.4Z" fill="white"/>
<path d="M191.931 87.1936H144.911V92.2638H191.931V87.1936Z" fill="white"/>
<path fill-rule="evenodd" clip-rule="evenodd" d="M191.592 87.4283C191.88 94.6546 192.222 102.185 191.643 107.707C190.983 103.714 191.189 95.4607 182.245 92.5776C164.772 86.9437 162.215 92.1227 164.724 91.6728" fill="white"/>
<path d="M192.246 87.1052H190.734V108.225H192.246V87.1052Z" fill="white"/>
<path d="M157.537 91.8154H154.182V173.43H157.537V91.8154Z" fill="white"/>
<path d="M161.843 172.86H115.773V174.973H161.843V172.86Z" fill="white"/>
<path fill-rule="evenodd" clip-rule="evenodd" d="M78.9725 169.434C79.2717 154.732 78.9556 154.069 79.2632 145.511C76.8953 150.394 74.0588 158.37 56.024 165.011C60.2604 165.635 62.6989 164.224 63.4412 166.501C64.0818 168.471 65.1684 169.177 65.4225 171.296" fill="white"/>
<path fill-rule="evenodd" clip-rule="evenodd" d="M63.3394 164.483C49.3462 170.481 31.8985 170.656 29 168.844C27.7243 168.048 28.2069 167.735 28.7629 166.307C29.9314 167.133 32.6634 168.88 45.9566 167.085C54.1753 165.973 56.69 164.497 60.2518 163.549" fill="white"/>
<path fill-rule="evenodd" clip-rule="evenodd" d="M109.465 91.0654C124.263 92.791 124.816 95.9359 126.975 117.308C128.448 92.9648 128.702 89.5512 126.656 89.405C125.998 89.3582 115.149 89.3246 114.399 90.0747" fill="white"/>
<path fill-rule="evenodd" clip-rule="evenodd" d="M43.8626 63.8203C43.8626 64.0051 43.9303 65.8597 44.2097 68.3984C44.7403 73.2263 46.2503 81.4475 49.2927 84.4406C52.2534 87.3549 58.6544 87.3349 65.5522 87.651C56.1708 88.4937 48.7113 90.2639 43.998 89.6006C43.0441 89.4669 42.9481 89.2394 42.9481 77.7527" fill="white"/>
<path fill-rule="evenodd" clip-rule="evenodd" d="M19.5876 89.7806C23.6179 89.8436 27.1289 90.7318 29.9089 91.5954C36.7729 93.7277 38.4748 95.6139 38.9884 96.1501C44.1307 101.539 43.7356 109.015 43.919 110.767C44.046 111.978 44.0941 112.608 44.2295 113.84C44.5626 105.025 43.0074 103.516 43.9275 95.6647C44.1928 93.3732 43.9501 91.3984 44.0489 90.6124C44.2775 88.794 42.3752 88.8385 41.8616 88.7948" fill="white"/>
<path fill-rule="evenodd" clip-rule="evenodd" d="M44.3115 113.689C44.5824 108.668 45.5759 101.239 47.7717 96.9121C50.6307 91.2768 62.3745 91.3208 64.9372 91.43C65.1263 91.0829 55.234 87.8603 50.6843 88.3658C43.3632 89.1792 43.2474 90.2235 43.1769 90.8523" fill="white"/>
<path fill-rule="evenodd" clip-rule="evenodd" d="M21.8004 188.99C23.4317 184.099 45.5984 164.009 71.2761 183.266C71.9788 183.794 77.3441 180.757 77.5755 184.33C77.9961 190.835 86.7792 190.59 87.4791 190.844C80.6745 195.546 74.66 196.872 68.1602 198.306C64.5532 199.102 61.762 201.383 55.5669 203.166C56.6196 202.387 66.4668 194.742 58.6151 186.828C50.6052 178.75 37.964 182.992 28.2354 185.473C25.1054 186.272 22.7939 187.404 22.0488 188.897" fill="white"/>
<path fill-rule="evenodd" clip-rule="evenodd" d="M90.7219 246.856C83.4996 270.042 79.6555 272.554 62.8315 281.145C34.69 295.516 -14.9107 275.359 4.31592 244.426C6.63307 240.701 16.0484 235.256 21.6479 234.415C23.3752 234.156 32.0849 233.633 44.2888 240.799C17.2789 236.622 12.8563 267.013 32.3079 273.807C60.4579 283.637 75.8651 278.012 77.4089 248.496" fill="white"/>
<path fill-rule="evenodd" clip-rule="evenodd" d="M31.9184 180.218C17.7926 185.188 12.21 209.138 14.1744 211.495C24.4308 223.803 37.7325 224.012 48.6888 231.356C63.5287 241.299 79.4918 245.696 74.0814 266.24C76.8558 262.918 79.8306 260.121 82.4666 257.556C87.2589 252.89 91.2723 250.198 90.5498 245.276C90.214 243.001 88.5939 239.295 86.0566 236.411C73.7766 222.44 50.2298 213.953 27.6342 200.144C25.0178 198.543 23.0422 196.184 24.7836 191.338C27.1939 184.632 34.6702 183.331 35.04 182.405" fill="white"/>
<path fill-rule="evenodd" clip-rule="evenodd" d="M36.8039 240.359C59.0073 243.145 70.418 264.225 75.0297 269.093C78.1653 272.404 96.3384 304.725 116.326 303.049C103.465 292.081 123.814 299.71 133.331 287.918C139.266 280.56 135.041 262.822 117.689 269.313C135.775 267.366 130.503 281.153 123.015 283.93C107.828 289.558 94.3148 281.198 91.9186 278.805C77.7392 264.626 54.3137 239.332 32.5281 235.846" fill="white"/>
<path d="M56.876 259.677L46.6239 249.169L36.1578 259.38L46.4098 269.888L56.876 259.677Z" fill="white"/>
<path d="M117.218 190.596H90.0502V192.382H117.218V190.596Z" fill="white"/>
<path fill-rule="evenodd" clip-rule="evenodd" d="M117.252 190.714C117.735 193.381 117.887 194.107 118.189 196.074C116.103 196.175 116.515 193.254 116.239 191.132" fill="white"/>
<path fill-rule="evenodd" clip-rule="evenodd" d="M98.7797 191.883C98.266 198.557 76.407 276.863 69.8366 287.845C65.4845 295.115 54.8725 309.094 40.4701 311.341C13.3022 315.58 4.11271 293.075 5.62548 288.559C-3.68203 303.241 1.84494 311.781 2.54347 313.511C5.67627 321.27 10.8637 322.512 11.8882 323.124C7.31605 320.528 2.71 331.27 5.57186 336.378C16.2008 316.266 37.151 342.618 63.2351 307.774C76.1473 290.526 80.6461 275.396 85.4131 260.449C85.7292 259.455 94.9921 225.364 102.787 191.84" fill="white"/>
<path fill-rule="evenodd" clip-rule="evenodd" d="M104.348 198.504C103.753 197.313 103.874 196.395 102.928 191.64C110.015 192.704 110.004 191.022 117.162 191.301C116.735 193.257 116.69 193.788 117.026 194.679" fill="white"/>
<path fill-rule="evenodd" clip-rule="evenodd" d="M90.5949 230.201C93.2676 230.328 97.9555 230.201 114.19 230.614C101.551 232.809 101.128 246.596 101.128 249.876C100.01 237.988 95.1021 232.744 92.2488 231.034C90.6852 230.094 94.4897 232.973 90.3748 233.151" fill="white"/>
<path fill-rule="evenodd" clip-rule="evenodd" d="M148.659 195.204C148.78 194.358 149.071 190.545 148.919 182.109C147.99 185.716 146.181 190.203 137.674 190.598C130.26 190.943 126.399 190.677 126.396 190.745C126.379 191.067 126.393 191.358 126.385 192.261C126.382 192.498 126.774 192.34 131.129 192.379C137.44 192.439 140.429 193.226 140.056 192.853" fill="white"/>
<path fill-rule="evenodd" clip-rule="evenodd" d="M114.077 252.958C115.886 261.397 112.945 261.687 111.116 263.276C126.749 263.228 127.085 263.234 137.598 263.192C134.892 262.946 128.262 261.49 126.422 248.911" fill="white"/>
<path fill-rule="evenodd" clip-rule="evenodd" d="M121.062 254.121C122.626 256.071 130.319 259.164 132.205 258.45C136.244 256.918 134.025 247.031 134.674 241.034C134.705 241.231 139.704 263.872 130.943 262.619" fill="white"/>
<path fill-rule="evenodd" clip-rule="evenodd" d="M141.4 305.177C140.988 298.347 141.891 288.249 139.921 272.294C139.139 265.986 131.093 263.214 121.596 261.481C133.492 258.893 139.853 260.451 149.026 259.52C148.845 263.118 149.684 288.951 150.225 290.969C152.274 298.646 159.144 299.498 167.546 299.829C163.245 300.495 159.062 300.365 157.829 315.157" fill="white"/>
<path fill-rule="evenodd" clip-rule="evenodd" d="M159.449 360.207C159.336 361.737 159.234 365.389 159.898 371.666C160.07 373.291 161.439 376.732 168.198 376.955C161.247 376.977 160.899 376.989 154.357 376.901" fill="white"/>
<path fill-rule="evenodd" clip-rule="evenodd" d="M176.696 360.769C176.617 372.938 176.355 375.8 166.688 376.368C152.06 377.228 172.321 377.073 178.624 376.746" fill="white"/>
<path fill-rule="evenodd" clip-rule="evenodd" d="M189.258 376.735C193.887 376.831 204.355 377.011 205.072 377.011C201.569 377.135 205.583 377.011 205.072 377.011C194.547 375.047 193.98 375.569 192.6 362.823" fill="white"/>
<path fill-rule="evenodd" clip-rule="evenodd" d="M204.691 311.798C204.877 314.22 204.798 303.563 201.646 302.287C197.102 300.45 193.757 299.894 192.323 299.992C213.101 297.345 212.61 305.984 226.324 307.491C231.147 308.022 231.08 307.771 236.041 307.915C236.177 307.918 236.295 307.898 236.295 307.985C236.29 308.454 236.352 308.891 236.295 309.374C227.035 309.416 227.171 309.43 218.083 309.377" fill="white"/>
<path fill-rule="evenodd" clip-rule="evenodd" d="M204.948 341.746C204.516 347.58 205.631 357.656 195.631 362.005C215.289 366.374 218.145 382.628 238.931 376.277C248.248 373.43 253.1 361.963 258.699 353.814C246.549 348.895 245.479 331.106 246.888 317.011C248.44 301.499 255.49 303.232 260.198 301.996C247.02 294.706 246.724 295.685 241.302 294.015C242.092 301.785 241.771 354.435 240.151 363.955C239.307 368.917 228.827 381.806 221.679 363.264C219.96 358.801 221.221 350.789 221.185 353.614" fill="white"/>
<path fill-rule="evenodd" clip-rule="evenodd" d="M154.732 335.314C167.972 335.526 167.876 335.111 181.175 335.746C171.257 336.053 168.243 343.448 167.303 352.113C166.662 345.996 164.12 340.654 162.531 338.929C161.314 337.606 158.675 335.972 154.732 335.314Z" fill="white"/>
<path fill-rule="evenodd" clip-rule="evenodd" d="M252.829 376.881C259.811 376.853 259.314 376.991 267.734 376.901C266.613 369.224 265.027 367.661 263.743 359.956C263.633 361.395 264.826 370.799 258.592 374.344C255.614 376.038 256.326 376.139 252.829 376.881Z" fill="white"/>
<path fill-rule="evenodd" clip-rule="evenodd" d="M275.856 376.842C277.465 376.836 288.876 377.087 293.273 377.144C280.914 374.245 282.364 367.624 281.075 356.592C280.846 362.758 280.688 365.341 281.314 371.2" fill="white"/>
<path d="M198.595 334.961H132.495V336.764H198.595V334.961Z" fill="white"/>
<path fill-rule="evenodd" clip-rule="evenodd" d="M141.552 361.395C141.326 362.386 141.922 372.377 140.155 373.808C139.136 374.632 138.625 375.693 132.888 376.977C135.473 376.974 139.478 376.881 144.756 376.963" fill="white"/>
<path fill-rule="evenodd" clip-rule="evenodd" d="M157.623 189.65C164.456 188.857 203.72 192.628 209.534 183.876C220.818 199.909 210.121 212.567 203.503 217.447C185.745 230.54 173.1 230.058 171.17 230.625C184.568 223.846 190.732 218.201 194.35 203.722C197.909 189.492 176.524 193.48 174.602 193.494C166.028 193.565 165.658 193.195 153.697 193.514C153.711 191.677 153.793 190.226 153.807 189.994C153.841 189.52 153.313 189.729 157.623 189.65Z" fill="white"/>
<path fill-rule="evenodd" clip-rule="evenodd" d="M174.825 230.029C188.513 251.183 184.542 251.728 201.504 270.442C211.964 281.986 228.571 293.653 244.542 299.069C274.739 309.312 311.135 300.153 329.675 276.832C331.643 274.357 336.35 268.927 337.668 253.15C338.219 246.565 332.43 238.268 339.339 226.137C334.403 227.639 334.49 227.371 330.996 231.212C323.43 219.008 307.373 215.477 301.356 215.565C288.712 215.748 274.38 222.959 272.06 225.754C283.386 223.301 305.923 220.919 309.498 247.852C312.276 268.783 301.861 282.285 281.032 291.173C277.967 292.479 251.084 298.392 222.669 279.655C220.928 278.509 194.282 250.299 198.405 232.081C199.232 228.423 199.898 226.016 203.483 223.374C195.132 225.054 190.734 226.216 183.108 226.967" fill="white"/>
<path fill-rule="evenodd" clip-rule="evenodd" d="M225.3 188.521C222.392 206.398 220.106 218.955 209.229 259.568C207.253 266.951 197.333 278.969 187.198 281.991C178.372 284.622 162.082 279.203 166.857 269.175C163.143 271.927 158.054 286.25 170.312 292.553C203.742 309.744 215.701 250.624 218.475 238.017C228.207 193.779 228.127 191.973 229.081 188.154" fill="white"/>
<path fill-rule="evenodd" clip-rule="evenodd" d="M231.734 194.059C231.13 191.781 230.978 188.981 228.63 188.897C227.32 188.851 227.397 188.987 220.008 188.987C219.807 188.987 219.872 188.719 219.965 186.371C226.406 186.179 245.502 186.207 245.57 186.562C245.68 187.13 245.674 187.231 245.75 187.756C246.066 189.966 246.213 190.429 246.219 190.666" fill="white"/>
<path fill-rule="evenodd" clip-rule="evenodd" d="M217.95 230.117C221.368 230.018 220.699 229.936 242.976 230.156C238.209 230.56 236.245 233.224 234.455 235.335C231.39 238.951 230.439 245.25 229.965 247.739C229.451 243.354 228.875 240.441 225.683 236.577C222.006 232.126 221.029 231.144 217.95 230.117Z" fill="white"/>
<path fill-rule="evenodd" clip-rule="evenodd" d="M176.05 312.001C177.148 298.429 168.398 299.874 165.74 299.874C183.503 299.843 184.844 299.761 202.515 299.668C192.202 300.41 193.881 310.077 193.314 312.91" fill="white"/>
<path fill-rule="evenodd" clip-rule="evenodd" d="M138.276 192.76C138.877 194.561 139.478 196.362 140.076 198.162V240.653" fill="white"/>
<path fill-rule="evenodd" clip-rule="evenodd" d="M244.458 255.721C244.221 256.556 244.788 259.785 243.972 261.882C243.109 264.098 239.648 264.942 238.827 265.272C240.947 265.309 250.836 265.32 265.219 264.798C261.747 263.765 261.158 262.847 259.456 258.47C258.451 255.882 258.536 252.899 257.985 251.902" fill="white"/>
<path fill-rule="evenodd" clip-rule="evenodd" d="M166.598 246.551C166.392 247.065 164.399 249.568 159.587 259.339C158.249 262.06 157.117 263.048 152.218 264.386C154.075 264.4 155.481 264.154 167.952 264.157C170.772 264.157 175.209 264.18 181.615 264.487C178.426 263.562 175.494 262.218 173.795 258.538C172.609 255.972 167.284 248.956 166.459 244.832" fill="white"/>
</svg>
